<?xml version="1.0" standalone="no"?>
<!DOCTYPE svg PUBLIC "-//W3C//DTD SVG 20010904//EN"
 "http://www.w3.org/TR/2001/REC-SVG-20010904/DTD/svg10.dtd">
<svg version="1.0" xmlns="http://www.w3.org/2000/svg"
 width="512.000000pt" height="512.000000pt" viewBox="0 0 512.000000 512.000000"
 preserveAspectRatio="xMidYMid meet">

<g transform="translate(0.000000,512.000000) scale(0.100000,-0.100000)"
fill="#000000" stroke="none">
<path d="M377 4686 c-91 -33 -164 -109 -187 -198 -7 -23 -9 -459 -8 -1215 l3
-1178 27 -51 c15 -29 46 -68 69 -87 76 -65 88 -67 521 -67 l387 0 3 -486 3
-486 29 -25 c52 -44 71 -33 276 172 l185 185 35 -10 c22 -6 307 -10 760 -10
l725 0 405 -405 c357 -356 409 -405 436 -405 20 0 39 9 55 26 l24 26 3 378 3
379 312 3 312 3 53 29 c59 33 96 76 117 137 22 62 22 1896 0 1958 -21 61 -58
104 -117 137 -52 28 -56 29 -230 32 l-177 4 -3 471 -3 472 -24 53 c-14 31 -43
70 -72 96 -92 83 85 76 -2013 76 -1548 -1 -1878 -3 -1909 -14z m3798 -166 c63
-39 60 25 60 -1235 0 -1113 -1 -1151 -19 -1178 -41 -60 9 -57 -1000 -57 -619
0 -934 -3 -953 -10 -15 -6 -227 -210 -470 -453 l-443 -442 0 422 c0 232 -3
429 -6 438 -17 43 -41 45 -494 45 l-430 0 -38 34 -37 34 -3 1161 c-3 1284 -7
1200 61 1241 31 20 65 20 1886 20 1839 0 1854 0 1886 -20z m581 -1183 l24 -28
0 -929 0 -929 -24 -28 -24 -28 -360 -3 c-343 -3 -360 -4 -380 -23 -22 -19 -22
-25 -22 -344 0 -179 -3 -325 -8 -325 -4 0 -162 155 -352 345 l-345 345 -720 0
-720 0 250 250 250 250 925 0 925 0 50 24 c65 30 112 77 144 146 l26 55 3 628
3 628 165 -3 166 -3 24 -28z"/>
<path d="M994 4013 c-57 -11 -79 -98 -35 -134 22 -18 68 -19 1330 -19 l1308 0
21 23 c30 32 29 77 -4 108 l-26 24 -1286 1 c-708 1 -1297 0 -1308 -3z"/>
<path d="M959 3351 c-31 -25 -32 -83 -1 -114 l23 -22 1277 -3 c702 -1 1292 0
1310 3 69 13 97 88 49 133 l-23 22 -1306 0 c-1261 0 -1307 -1 -1329 -19z"/>
<path d="M972 2723 c-21 -8 -43 -61 -36 -88 3 -14 18 -34 31 -45 25 -19 43
-20 685 -20 l660 0 29 29 c16 16 29 37 29 46 0 24 -27 72 -45 79 -20 7 -1334
7 -1353 -1z"/>
</g>
</svg>
