<!DOCTYPE svg PUBLIC "-//W3C//DTD SVG 1.1//EN" "http://www.w3.org/Graphics/SVG/1.1/DTD/svg11.dtd">
<!-- Uploaded to: SVG Repo, www.svgrepo.com, Transformed by: SVG Repo Mixer Tools -->
<svg fill="#363e50" width="109px" height="109px" viewBox="0 0 48 48" data-name="Layer 1" id="Layer_1" xmlns="http://www.w3.org/2000/svg" stroke="#363e50">
<g id="SVGRepo_bgCarrier" stroke-width="0"/>
<g id="SVGRepo_tracerCarrier" stroke-linecap="round" stroke-linejoin="round"/>
<g id="SVGRepo_iconCarrier">
<title/>
<path d="M47,12a2,2,0,0,0-2-2H24a2,2,0,0,0,0,4H45A2,2,0,0,0,47,12Z"/>
<path d="M3,14H8.35a6,6,0,1,0,0-4H3a2,2,0,0,0,0,4Zm11-4a2,2,0,1,1-2,2A2,2,0,0,1,14,10Z"/>
<path d="M45,22H37.65a6,6,0,1,0,0,4H45a2,2,0,0,0,0-4ZM32,26a2,2,0,1,1,2-2A2,2,0,0,1,32,26Z"/>
<path d="M22,22H3a2,2,0,0,0,0,4H22a2,2,0,0,0,0-4Z"/>
<path d="M45,34H28a2,2,0,0,0,0,4H45a2,2,0,0,0,0-4Z"/>
<path d="M18,30a6,6,0,0,0-5.65,4H3a2,2,0,0,0,0,4h9.35A6,6,0,1,0,18,30Zm0,8a2,2,0,1,1,2-2A2,2,0,0,1,18,38Z"/>
</g>
</svg>