<?xml version="1.0" standalone="no"?>
<!DOCTYPE svg PUBLIC "-//W3C//DTD SVG 20010904//EN"
 "http://www.w3.org/TR/2001/REC-SVG-20010904/DTD/svg10.dtd">
<svg version="1.0" xmlns="http://www.w3.org/2000/svg"
 width="32.000000pt" height="32.000000pt" viewBox="0 0 32.000000 32.000000"
 preserveAspectRatio="xMidYMid meet">

<g transform="translate(0.000000,32.000000) scale(0.100000,-0.100000)"
fill="#5f6c7d" stroke="none">
<path d="M87 314 c-4 -4 -7 -16 -7 -26 0 -14 -8 -18 -40 -18 l-40 0 0 -45 c0
-25 5 -45 10 -45 6 0 10 -37 10 -90 l0 -90 140 0 140 0 0 90 c0 53 4 90 10 90
6 0 10 20 10 45 l0 45 -39 0 c-33 0 -40 4 -43 23 -2 18 -9 22 -33 19 -49 -4
-59 -4 -85 3 -14 4 -29 3 -33 -1z m53 -29 c11 -13 8 -15 -14 -15 -16 0 -26 5
-26 15 0 8 6 15 14 15 7 0 19 -7 26 -15z m80 0 c0 -10 -10 -15 -26 -15 -22 0
-25 2 -14 15 7 8 19 15 26 15 8 0 14 -7 14 -15z m-110 -60 c0 -23 -4 -25 -45
-25 -41 0 -45 2 -45 25 0 23 4 25 45 25 41 0 45 -2 45 -25z m90 -19 l0 -43
-40 0 -40 0 0 43 0 44 40 0 40 0 0 -44z m100 19 c0 -23 -4 -25 -45 -25 -41 0
-45 2 -45 25 0 23 4 25 45 25 41 0 45 -2 45 -25z m-186 -82 c3 -21 6 -57 6
-80 l0 -43 -40 0 -40 0 0 80 0 80 34 0 c31 0 34 -3 40 -37z m166 -43 l0 -80
-40 0 -40 0 0 43 c0 23 3 59 6 80 6 34 9 37 40 37 l34 0 0 -80z m-102 -18 c3
-57 1 -62 -18 -62 -18 0 -20 6 -20 58 0 32 3 62 7 66 17 17 28 -5 31 -62z"/>
</g>
</svg>
