<?xml version="1.0" standalone="no"?>
<!DOCTYPE svg PUBLIC "-//W3C//DTD SVG 20010904//EN"
 "http://www.w3.org/TR/2001/REC-SVG-20010904/DTD/svg10.dtd">
<svg version="1.0" xmlns="http://www.w3.org/2000/svg"
 width="18.0pt" height="18.0pt" viewBox="0 0 512.000000 512.000000"
 preserveAspectRatio="xMidYMid meet">

<g transform="translate(0.000000,512.000000) scale(0.100000,-0.100000)"
fill="#5f6c7d" stroke="none">
<path d="M900 5113 c-253 -40 -424 -126 -596 -297 -148 -149 -234 -302 -280
-501 -18 -76 -19 -157 -19 -1755 0 -1598 1 -1679 19 -1755 46 -199 132 -352
280 -501 149 -148 302 -234 501 -280 76 -18 157 -19 1755 -19 1600 0 1679 1
1755 19 203 47 347 128 500 281 153 153 234 297 281 500 18 76 19 155 19 1760
l0 1680 -22 85 c-48 188 -130 335 -265 476 -134 139 -297 234 -493 287 l-80
22 -1665 1 c-916 1 -1676 0 -1690 -3z m3374 -356 c239 -72 415 -248 482 -483
13 -45 18 -114 21 -291 l5 -233 -2222 0 -2222 0 5 233 c3 178 8 246 21 292 57
200 212 376 399 452 131 53 70 51 1822 50 1531 -2 1634 -3 1689 -20z m-2564
-2883 l0 -1535 -402 3 c-343 4 -412 7 -462 21 -228 66 -392 223 -473 452 l-28
80 -3 1258 -3 1257 686 0 685 0 0 -1536z m3067 284 c-3 -1400 3 -1288 -75
-1448 -51 -106 -186 -241 -292 -292 -158 -77 -69 -72 -1277 -75 l-1083 -4 0
1536 0 1535 1365 0 1366 0 -4 -1252z"/>
</g>
</svg>
