<?xml version="1.0" standalone="no"?>
<!DOCTYPE svg PUBLIC "-//W3C//DTD SVG 20010904//EN"
 "http://www.w3.org/TR/2001/REC-SVG-20010904/DTD/svg10.dtd">
<svg version="1.0" xmlns="http://www.w3.org/2000/svg"
 width="64.000000pt" height="64.000000pt" viewBox="0 0 64.000000 64.000000"
 preserveAspectRatio="xMidYMid meet">

<g transform="translate(0.000000,64.000000) scale(0.100000,-0.100000)"
fill="#5f6c7d" stroke="none">
<path d="M307 633 c-4 -3 -7 -15 -7 -25 0 -16 11 -18 129 -18 104 0 133 -3
145 -16 24 -23 24 -485 0 -508 -12 -13 -41 -16 -145 -16 -129 0 -130 0 -127
-23 3 -21 7 -22 133 -25 141 -3 176 5 194 44 15 34 15 514 0 547 -6 14 -22 30
-36 36 -26 12 -275 16 -286 4z"/>
<path d="M87 417 c-48 -45 -87 -89 -87 -97 0 -20 171 -180 193 -180 32 0 17
34 -40 92 l-57 58 150 0 c118 0 154 3 170 15 19 15 19 15 0 30 -16 12 -52 15
-170 15 l-150 0 57 58 c57 58 72 92 40 92 -10 0 -57 -37 -106 -83z"/>
</g>
</svg>
