<?xml version="1.0" standalone="no"?>
<!DOCTYPE svg PUBLIC "-//W3C//DTD SVG 20010904//EN"
 "http://www.w3.org/TR/2001/REC-SVG-20010904/DTD/svg10.dtd">
<svg version="1.0" xmlns="http://www.w3.org/2000/svg"
 width="64.000000pt" height="64.000000pt" viewBox="0 0 64.000000 64.000000"
 preserveAspectRatio="xMidYMid meet">

<g transform="translate(0.000000,64.000000) scale(0.100000,-0.100000)"
fill="#5f6c7d" stroke="none">
<path d="M147 598 c-91 -25 -123 -102 -115 -279 8 -156 34 -191 151 -205 46
-5 56 -11 76 -40 39 -57 83 -57 121 -1 19 27 32 35 80 44 121 23 145 63 145
243 0 148 -15 190 -81 224 -34 18 -59 21 -189 23 -82 1 -167 -3 -188 -9z m361
-46 c38 -22 54 -57 59 -140 13 -183 -16 -244 -120 -257 -51 -7 -61 -12 -92
-49 l-35 -41 -36 42 c-28 34 -42 43 -67 43 -53 0 -106 20 -123 45 -19 30 -30
166 -20 249 9 67 36 104 86 116 52 13 320 7 348 -8z"/>
<path d="M192 348 c2 -15 10 -23 23 -23 30 0 27 39 -3 43 -20 3 -23 0 -20 -20z"/>
<path d="M297 356 c-9 -22 19 -42 37 -26 19 15 10 40 -14 40 -10 0 -20 -6 -23
-14z"/>
<path d="M403 354 c-3 -8 -1 -20 5 -26 16 -16 42 -2 42 22 0 24 -38 28 -47 4z"/>
</g>
</svg>
