<?xml version="1.0" standalone="no"?>
<!DOCTYPE svg PUBLIC "-//W3C//DTD SVG 20010904//EN"
 "http://www.w3.org/TR/2001/REC-SVG-20010904/DTD/svg10.dtd">
<svg version="1.0" xmlns="http://www.w3.org/2000/svg"
 width="32.000000pt" height="32.000000pt" viewBox="0 0 32.000000 32.000000"
 preserveAspectRatio="xMidYMid meet">

<g transform="translate(0.000000,32.000000) scale(0.100000,-0.100000)"
fill="#5f6c7d" stroke="none">
<path d="M181 286 c-7 -8 -21 -12 -32 -9 -30 8 -66 -32 -74 -81 -4 -22 -13
-51 -21 -63 -28 -44 -13 -73 36 -73 11 0 24 -9 30 -20 15 -27 65 -27 80 0 6
11 19 20 30 20 49 0 65 34 35 74 -8 11 -15 30 -15 43 0 13 -4 23 -10 23 -15 0
-12 -41 5 -74 8 -15 15 -32 15 -37 0 -5 -45 -9 -100 -9 -106 0 -115 5 -85 44
8 11 15 30 15 41 0 39 21 82 45 93 20 9 24 8 29 -13 4 -14 15 -29 27 -35 43
-24 92 43 57 78 -16 16 -53 15 -67 -2z m57 -32 c4 -26 -26 -40 -45 -21 -8 7
-11 21 -7 31 9 24 48 17 52 -10z m-53 -204 c-8 -13 -42 -13 -50 0 -4 6 7 10
25 10 18 0 29 -4 25 -10z"/>
</g>
</svg>
