<?xml version="1.0" standalone="no"?>
<!DOCTYPE svg PUBLIC "-//W3C//DTD SVG 20010904//EN"
 "http://www.w3.org/TR/2001/REC-SVG-20010904/DTD/svg10.dtd">
<svg version="1.0" xmlns="http://www.w3.org/2000/svg"
 width="64.000000pt" height="64.000000pt" viewBox="0 0 64.000000 64.000000"
 preserveAspectRatio="xMidYMid meet">

<g transform="translate(0.000000,64.000000) scale(0.100000,-0.100000)"
fill="#5f6c7d" stroke="none">
<path d="M243 600 c-121 -73 -65 -265 77 -265 79 0 141 59 142 136 2 88 -57
149 -142 149 -27 0 -58 -8 -77 -20z m153 -44 c29 -29 34 -41 34 -79 0 -80 -70
-132 -145 -107 -49 16 -75 53 -75 107 0 38 5 50 34 79 28 28 42 34 76 34 34 0
48 -6 76 -34z"/>
<path d="M151 279 c-48 -29 -68 -57 -82 -112 -13 -55 -6 -102 18 -129 15 -16
36 -18 233 -18 197 0 218 2 233 18 40 44 28 153 -21 205 -48 51 -70 57 -214
57 -117 0 -137 -3 -167 -21z m326 -29 c46 -28 65 -70 61 -138 l-3 -57 -215 0
-215 0 -3 57 c-4 68 15 110 61 138 27 17 51 20 157 20 106 0 130 -3 157 -20z"/>
</g>
</svg>
