<?xml version="1.0" standalone="no"?>
<!DOCTYPE svg PUBLIC "-//W3C//DTD SVG 20010904//EN"
 "http://www.w3.org/TR/2001/REC-SVG-20010904/DTD/svg10.dtd">
<svg version="1.0" xmlns="http://www.w3.org/2000/svg"
 width="64.000000pt" height="64.000000pt" viewBox="0 0 64.000000 64.000000"
 preserveAspectRatio="xMidYMid meet">

<g transform="translate(0.000000,64.000000) scale(0.100000,-0.100000)"
fill="#5f6c7d" stroke="none">
<path d="M262 620 c-91 -56 -49 -200 58 -200 107 0 149 144 58 200 -42 25 -74
25 -116 0z m78 -68 c0 -27 -7 -45 -23 -61 -22 -20 -25 -20 -38 -5 -11 14 -11
17 4 25 11 7 17 22 17 44 0 28 4 35 20 35 17 0 20 -7 20 -38z"/>
<path d="M87 314 c-4 -4 -7 -45 -7 -91 l0 -83 65 0 66 0 -3 88 -3 87 -55 3
c-31 2 -59 0 -63 -4z"/>
<path d="M262 308 c-7 -7 -12 -43 -12 -90 l0 -78 70 0 70 0 0 78 c0 47 -5 83
-12 90 -16 16 -100 16 -116 0z"/>
<path d="M437 314 c-4 -4 -7 -45 -7 -91 l0 -83 65 0 66 0 -3 88 -3 87 -55 3
c-31 2 -59 0 -63 -4z"/>
<path d="M0 132 c0 -46 4 -63 20 -77 11 -10 20 -26 20 -37 0 -11 7 -18 20 -18
11 0 20 7 20 15 0 13 33 15 240 15 207 0 240 -2 240 -15 0 -8 9 -15 20 -15 13
0 20 7 20 18 0 11 9 27 20 37 16 14 20 31 20 77 0 51 -2 58 -20 58 -17 0 -20
-7 -20 -40 l0 -40 -280 0 -280 0 0 40 c0 33 -3 40 -20 40 -18 0 -20 -7 -20
-58z"/>
</g>
</svg>
